<?xml version="1.0" standalone="no"?>
<!DOCTYPE svg PUBLIC "-//W3C//DTD SVG 20010904//EN"
 "http://www.w3.org/TR/2001/REC-SVG-20010904/DTD/svg10.dtd">
<svg version="1.0" xmlns="http://www.w3.org/2000/svg"
 width="512.000000pt" height="512.000000pt" viewBox="0 0 512.000000 512.000000"
 preserveAspectRatio="xMidYMid meet">

<g transform="translate(0.000000,512.000000) scale(0.100000,-0.100000)"
fill="#00642E" stroke="none">
<path d="M1524 4900 c-201 -30 -352 -157 -432 -364 -12 -31 -17 -96 -21 -261
l-6 -220 -115 -6 c-132 -7 -195 -27 -290 -90 -103 -70 -183 -182 -215 -304
-22 -88 -23 -2950 0 -3038 47 -180 184 -325 360 -380 l70 -22 1265 0 1265 0
64 23 c227 82 356 258 368 503 l6 107 206 4 c173 5 216 9 272 27 171 55 308
201 354 378 23 86 23 3160 0 3246 -46 177 -180 320 -354 380 l-66 22 -1340 1
c-737 1 -1363 -2 -1391 -6z m2687 -436 c62 -32 59 59 59 -1584 0 -1274 -2
-1506 -14 -1535 -24 -57 -53 -65 -246 -65 l-170 0 0 1148 c0 1269 2 1212 -65
1341 -60 114 -166 207 -290 254 l-60 22 -965 5 -965 5 -3 155 c-4 181 5 222
51 250 31 19 61 20 1335 20 1163 0 1306 -2 1333 -16z m-867 -848 c72 -30 66
97 66 -1478 0 -998 -3 -1424 -11 -1441 -6 -13 -23 -31 -39 -40 -26 -16 -126
-17 -1225 -17 -1326 0 -1242 -4 -1271 65 -12 29 -14 247 -14 1431 0 1248 2
1399 16 1429 32 68 -47 64 1262 65 994 0 1187 -2 1216 -14z"/>
</g>
</svg>
