<?xml version="1.0" standalone="no"?>
<!DOCTYPE svg PUBLIC "-//W3C//DTD SVG 20010904//EN"
 "http://www.w3.org/TR/2001/REC-SVG-20010904/DTD/svg10.dtd">
<svg version="1.0" xmlns="http://www.w3.org/2000/svg"
 width="512.000000pt" height="512.000000pt" viewBox="0 0 512.000000 512.000000"
 preserveAspectRatio="xMidYMid meet">

<g transform="translate(0.000000,512.000000) scale(0.100000,-0.100000)"
fill="#000000" stroke="none">
<path d="M880 5105 c-456 -80 -801 -434 -869 -892 -15 -100 -15 -3206 0 -3306
70 -467 429 -826 896 -896 100 -15 3206 -15 3306 0 467 70 826 429 896 896 15
100 15 3206 0 3306 -70 467 -429 826 -896 896 -114 17 -3235 13 -3333 -4z
m2272 -2037 l-592 -593 -592 593 -593 592 1185 0 1185 0 -593 -592z m-1662 47
l455 -455 -458 -458 c-364 -363 -459 -454 -467 -442 -11 16 -14 1767 -4 1794
3 9 9 16 13 16 3 0 211 -205 461 -455z m2614 439 c10 -27 7 -1778 -4 -1794 -8
-12 -103 79 -467 442 l-458 458 455 455 c250 250 458 455 461 455 4 0 10 -7
13 -16z m-1742 -1311 l198 -198 200 200 200 200 393 -393 392 -392 -1185 0
-1185 0 390 390 c214 215 392 390 395 390 3 0 94 -89 202 -197z"/>
</g>
</svg>
