<?xml version="1.0" standalone="no"?>
<!DOCTYPE svg PUBLIC "-//W3C//DTD SVG 20010904//EN"
 "http://www.w3.org/TR/2001/REC-SVG-20010904/DTD/svg10.dtd">
<svg version="1.0" xmlns="http://www.w3.org/2000/svg"
 width="512.000000pt" height="512.000000pt" viewBox="0 0 512.000000 512.000000"
 preserveAspectRatio="xMidYMid meet">

<g transform="translate(0.000000,512.000000) scale(0.100000,-0.100000)"
fill="#000000" stroke="none">
<path d="M790 5105 c-195 -36 -349 -116 -497 -258 -111 -107 -194 -236 -242
-374 -52 -155 -51 -105 -51 -1913 0 -1808 -1 -1758 51 -1913 93 -271 325 -503
596 -596 136 -46 206 -51 696 -51 438 0 463 1 501 20 82 40 88 68 80 422 l-7
288 -41 -8 c-23 -4 -122 -7 -221 -7 -255 1 -356 31 -476 143 -65 60 -71 70
-135 210 -74 163 -173 290 -261 335 -39 21 -103 94 -103 119 0 39 117 51 206
21 123 -42 221 -123 308 -256 112 -169 238 -256 385 -265 89 -5 195 10 285 39
l65 21 16 75 c19 85 71 193 117 239 l30 32 -29 5 c-15 3 -50 8 -78 12 -297 36
-587 164 -751 330 -100 102 -168 215 -224 380 -60 170 -74 268 -74 510 0 212
1 223 27 310 46 150 120 287 198 370 l28 30 -19 64 c-30 95 -41 221 -30 326 6
49 12 97 15 105 2 8 15 54 29 102 26 85 27 87 62 94 98 18 384 -87 601 -223
l72 -45 93 21 c218 47 339 61 548 61 209 0 330 -14 548 -61 l93 -21 72 44
c241 148 483 240 588 224 l46 -7 27 -87 c40 -134 48 -195 43 -337 -3 -95 -10
-147 -25 -195 l-21 -65 28 -30 c79 -84 153 -223 197 -370 22 -75 27 -116 31
-246 14 -407 -96 -752 -304 -955 -167 -163 -404 -272 -693 -319 -52 -8 -110
-18 -128 -21 l-33 -5 34 -39 c49 -58 85 -128 109 -217 20 -73 22 -108 27 -583
7 -579 2 -548 93 -575 43 -12 125 -15 499 -15 475 0 547 5 682 51 270 93 503
326 596 596 52 155 51 105 51 1913 0 1808 1 1758 -51 1913 -93 271 -325 503
-596 596 -155 52 -103 51 -1922 50 -1371 -1 -1700 -3 -1761 -14z"/>
<path d="M909 1479 c-11 -7 -10 -12 8 -30 24 -24 57 -19 51 7 -4 21 -40 35
-59 23z"/>
<path d="M1011 1386 c-16 -19 28 -72 52 -63 22 8 22 40 -1 60 -23 21 -36 21
-51 3z"/>
<path d="M1111 1256 c-10 -11 -9 -21 3 -44 19 -37 41 -46 61 -26 20 20 19 26
-6 58 -23 29 -41 33 -58 12z"/>
<path d="M1239 1111 c-22 -18 -22 -19 -6 -45 18 -26 58 -43 76 -31 17 10 13
50 -6 67 -32 27 -41 28 -64 9z"/>
<path d="M1407 1003 c-4 -3 -7 -16 -7 -29 0 -17 9 -25 35 -34 20 -7 42 -9 50
-6 22 8 18 53 -4 66 -22 11 -64 13 -74 3z"/>
<path d="M1812 988 c-35 -35 5 -75 56 -57 35 12 48 35 31 55 -14 17 -71 18
-87 2z"/>
<path d="M1628 973 c-20 -5 -30 -27 -22 -48 14 -37 104 -25 104 13 0 35 -31
49 -82 35z"/>
</g>
</svg>
