<?xml version="1.0" standalone="no"?>
<!DOCTYPE svg PUBLIC "-//W3C//DTD SVG 20010904//EN"
 "http://www.w3.org/TR/2001/REC-SVG-20010904/DTD/svg10.dtd">
<svg version="1.0" xmlns="http://www.w3.org/2000/svg"
 width="495.000000pt" height="495.000000pt" viewBox="0 0 495.000000 495.000000"
 preserveAspectRatio="xMidYMid meet">
<metadata>
Created by potrace 1.16, written by Peter Selinger 2001-2019
</metadata>
<g transform="translate(0.000000,495.000000) scale(0.100000,-0.100000)"
fill="#000000" stroke="none">
<path d="M1238 4943 c684 -2 1800 -2 2480 0 680 1 121 2 -1243 2 -1364 0
-1921 -1 -1237 -2z"/>
<path d="M2503 4593 c9 -2 17 -9 17 -14 0 -13 -58 -11 -62 2 -3 8 -15 6 -41
-4 -43 -18 -48 -26 -12 -19 14 2 25 0 25 -4 0 -21 -57 -42 -180 -66 -34 -7
-78 -26 -114 -50 -32 -21 -73 -45 -90 -52 -17 -8 -40 -22 -51 -32 -11 -11 -42
-37 -70 -59 -115 -93 -152 -137 -222 -270 -91 -174 -113 -226 -103 -245 5 -9
5 -23 -1 -31 -5 -7 -9 -32 -9 -55 0 -50 37 -253 49 -268 5 -6 8 -45 7 -86 -2
-55 2 -85 15 -111 12 -23 18 -59 18 -106 0 -38 9 -116 21 -173 20 -98 47 -159
120 -275 41 -65 41 -63 24 -73 -14 -8 -14 -10 0 -21 26 -22 19 -26 -46 -26
-56 0 -102 -5 -163 -19 -11 -2 -37 -11 -57 -20 -21 -9 -49 -16 -63 -16 -21 0
-36 -5 -74 -27 -2 -2 2 -10 9 -18 9 -10 22 -14 39 -10 14 3 35 7 46 9 11 3 39
11 63 20 23 8 43 15 45 15 1 -1 21 4 44 10 23 6 45 11 50 10 4 -1 32 -1 61 0
42 1 52 4 53 19 0 14 3 13 16 -5 8 -13 21 -23 28 -23 17 0 21 -14 24 -75 5
-105 125 -270 236 -325 28 -13 64 -34 80 -46 28 -21 117 -64 158 -78 11 -3 17
0 17 8 0 8 -21 22 -47 32 -27 10 -70 33 -97 51 -26 18 -52 33 -58 33 -5 0 -33
15 -62 34 -87 56 -135 115 -160 201 l-14 46 21 -15 c41 -30 116 -66 137 -66
11 0 20 -4 20 -10 0 -5 7 -10 16 -10 11 0 14 5 10 16 -3 9 -6 18 -6 20 0 2 -5
4 -11 4 -26 0 -120 54 -137 78 -11 15 -54 91 -95 170 -42 79 -83 150 -92 158
-8 9 -15 21 -15 29 0 7 -11 35 -24 62 -38 75 -47 124 -53 303 l-5 165 48 -46
c91 -86 151 -120 161 -91 3 6 -1 12 -8 12 -26 0 -80 53 -114 114 -19 34 -35
67 -35 72 0 5 21 -13 45 -40 25 -27 49 -45 53 -41 4 4 1 10 -6 12 -11 4 -42
54 -42 68 0 3 10 5 23 5 27 0 69 -50 71 -85 1 -19 11 -26 61 -41 63 -18 105
-40 118 -61 10 -16 47 -17 47 -3 0 6 -7 25 -16 41 -8 17 -13 36 -11 42 5 15
-18 74 -36 90 -20 18 -55 37 -69 37 -7 0 -1 -12 15 -25 15 -13 27 -31 27 -40
0 -14 -3 -14 -27 2 -16 9 -41 29 -58 44 -55 50 -151 62 -189 24 -12 -12 -15
-12 -19 5 -3 11 3 26 14 36 10 9 28 35 39 58 11 22 29 51 39 63 18 22 20 22
91 7 40 -8 75 -13 78 -10 2 3 14 -1 26 -9 11 -8 27 -15 35 -15 8 0 23 -8 33
-17 14 -12 21 -14 30 -5 31 31 -72 120 -164 143 -27 6 -48 13 -48 14 0 15 48
104 67 126 15 16 31 39 37 51 15 30 97 69 162 75 61 7 70 27 24 50 l-25 13 32
0 c19 0 57 -15 94 -36 67 -40 72 -38 84 23 10 55 88 173 114 173 6 0 11 4 11
10 0 5 7 7 15 4 8 -4 17 1 21 10 6 16 24 22 24 8 0 -4 -15 -25 -34 -45 -19
-20 -31 -39 -27 -41 3 -2 40 12 81 32 63 30 86 36 145 36 l69 1 11 -36 c5 -20
15 -42 21 -50 24 -31 25 -39 6 -39 -13 0 -24 10 -31 30 -13 38 -47 41 -61 5
-5 -14 -17 -28 -25 -31 -19 -8 -19 -28 1 -59 21 -32 10 -32 -35 2 -45 35 -87
34 -162 -1 -69 -33 -105 -64 -90 -79 7 -7 19 -6 40 2 23 10 41 10 88 0 32 -7
64 -19 71 -26 17 -16 57 -108 72 -164 7 -24 20 -61 31 -84 10 -22 23 -68 27
-103 l9 -63 -66 8 c-86 9 -163 5 -174 -10 -7 -9 -10 -9 -14 1 -8 20 -20 14
-33 -18 -13 -33 -7 -51 11 -33 8 8 22 7 51 -3 22 -8 48 -14 57 -14 9 0 43 -14
76 -30 33 -16 72 -30 87 -30 15 0 30 -5 34 -11 9 -15 73 -223 69 -227 -7 -8
-132 23 -147 36 -9 8 -27 14 -40 13 -13 0 -55 -1 -95 -1 -54 0 -77 -5 -94 -19
-27 -22 -18 -41 21 -41 16 0 32 -4 35 -10 9 -15 35 -12 35 5 0 8 8 19 18 24
15 8 20 4 31 -24 6 -18 18 -36 26 -39 8 -3 13 -11 10 -18 -3 -7 9 -23 27 -35
32 -22 53 -21 44 2 -3 8 2 11 13 8 10 -2 42 0 72 7 30 6 59 12 66 13 6 1 22
-14 35 -33 25 -36 60 -49 82 -31 12 10 76 5 76 -6 0 -2 -11 -14 -25 -27 -14
-13 -25 -27 -25 -32 1 -5 9 1 20 14 10 12 21 18 24 13 4 -5 -8 -23 -25 -41
-17 -17 -29 -33 -27 -36 3 -2 22 12 42 32 23 23 33 40 26 44 -13 8 4 24 38 35
19 5 21 9 11 21 -17 21 2 36 74 63 79 29 91 27 116 -14 l21 -36 -42 -57 c-53
-72 -120 -139 -178 -180 -45 -32 -114 -49 -125 -32 -10 17 -49 -11 -105 -74
-78 -89 -127 -121 -325 -207 -112 -49 -233 -91 -315 -109 -72 -16 -90 -28 -90
-59 0 -30 38 -67 94 -92 36 -17 42 -6 17 34 -12 19 -18 42 -15 51 4 12 2 15
-9 10 -8 -3 -18 -1 -22 5 -4 7 7 11 29 11 19 0 37 -4 41 -9 3 -5 18 -9 33 -9
15 0 51 -9 80 -21 53 -21 132 -29 132 -12 0 5 8 11 18 15 27 9 80 51 170 134
47 42 87 79 91 82 3 3 11 14 17 25 6 11 19 20 28 20 9 0 26 11 37 25 17 21 19
22 15 5 -3 -11 -11 -42 -17 -70 -7 -27 -19 -60 -27 -72 -7 -12 -10 -27 -6 -34
10 -16 36 19 84 114 23 44 47 77 55 77 8 0 15 -5 15 -12 0 -6 8 -21 18 -32 23
-26 40 -84 48 -163 7 -64 -6 -100 -67 -190 -33 -47 -35 -53 -15 -53 14 0 76
82 76 101 0 5 7 12 15 15 8 4 15 12 15 19 0 8 5 26 12 42 6 15 10 55 9 88 l-2
60 73 -76 c66 -69 176 -191 188 -209 3 -4 15 -12 27 -19 13 -6 26 -23 29 -36
3 -14 10 -25 15 -25 5 0 9 -4 9 -10 0 -5 15 -30 34 -54 37 -49 63 -49 52 0
l-6 29 21 -25 c68 -80 130 -140 152 -145 15 -4 28 -16 31 -29 3 -12 13 -29 23
-38 75 -69 143 -142 148 -159 4 -10 11 -19 16 -19 5 0 9 -7 9 -15 0 -8 4 -15
9 -15 14 0 71 -88 71 -109 0 -9 -6 -23 -12 -30 -11 -10 -10 -15 3 -24 10 -7
18 -33 22 -67 3 -30 7 -64 10 -75 19 -80 27 -195 16 -245 -5 -19 -18 -78 -29
-130 -28 -129 -59 -223 -76 -233 -16 -9 -39 -55 -59 -122 -14 -46 -14 -51 3
-65 13 -11 17 -29 16 -70 -1 -60 -13 -124 -21 -116 -3 2 -30 -12 -62 -33 -49
-33 -142 -71 -174 -71 -6 0 -18 -7 -28 -16 -17 -15 -21 -15 -59 5 -22 11 -51
21 -65 21 -13 0 -27 4 -30 10 -3 5 -25 10 -48 10 -72 0 -262 66 -273 95 -4 8
-10 13 -14 10 -5 -3 -29 15 -53 40 -47 47 -73 56 -84 29 -4 -11 5 -24 26 -41
40 -31 39 -40 -3 -35 -19 2 -37 -1 -41 -8 -12 -19 18 -40 60 -43 33 -2 40 1
39 16 -3 27 1 25 82 -42 11 -9 50 -23 74 -27 8 -1 34 -9 57 -17 23 -9 63 -19
90 -22 48 -7 99 -21 206 -56 61 -20 80 -18 70 6 -3 9 1 15 8 16 47 2 148 46
212 91 15 11 27 16 26 11 -5 -30 2 -44 21 -38 20 6 24 -1 21 -36 -1 -9 5 -21
12 -28 30 -24 36 12 42 225 6 224 15 293 69 493 18 69 38 146 44 171 16 66 17
156 3 174 -13 16 -17 33 -25 115 -3 30 -1 62 5 73 8 15 7 31 -7 67 -10 25 -19
48 -20 51 -20 83 -149 265 -189 265 -14 0 -84 72 -85 87 0 4 -13 14 -30 23
-16 8 -53 43 -82 78 -28 34 -49 54 -45 45 3 -10 3 -18 -1 -18 -17 1 -33 18
-35 38 0 12 -3 19 -6 17 -6 -7 -31 16 -31 29 0 6 5 4 11 -4 9 -13 10 -13 6 0
-2 8 -11 14 -19 12 -8 -1 -31 16 -52 38 -20 22 -40 40 -45 40 -4 0 -26 26 -48
58 -39 54 -254 266 -322 316 -47 35 -61 57 -50 78 5 10 16 18 23 18 8 0 19 7
26 15 15 18 7 19 -19 3 -15 -9 -25 -9 -43 0 -21 11 -21 12 -2 9 12 -1 40 16
70 41 27 23 54 42 61 42 6 0 55 47 110 106 54 58 128 128 166 157 37 28 67 57
67 65 0 8 21 42 46 76 l47 61 -8 210 c-11 333 -11 356 -4 343 9 -17 21 -134
24 -223 3 -91 3 -89 20 -75 11 9 13 31 10 98 -9 198 -42 295 -167 481 -153
230 -198 285 -328 401 -46 41 -98 88 -114 103 -21 19 -38 26 -51 22 -128 -36
-256 -47 -271 -24 -3 5 -14 9 -24 9 -11 0 -38 10 -60 21 -33 17 -48 20 -73 12
-26 -7 -38 -5 -66 14 -19 13 -43 22 -55 22 -17 -1 -18 -2 -3 -6z m94 -65 c7
-6 19 -4 32 4 25 15 63 -2 127 -57 21 -18 42 -31 46 -29 4 3 16 -1 26 -7 14
-9 24 -9 38 -1 10 6 13 12 7 12 -7 0 -13 5 -13 10 0 6 20 10 45 10 25 0 45 5
45 10 0 15 57 12 64 -2 5 -10 7 -10 12 0 17 37 127 -28 179 -107 32 -47 38
-97 13 -93 -15 2 -14 -5 8 -53 15 -31 23 -59 19 -63 -3 -3 -10 0 -15 8 -7 11
-10 5 -10 -22 0 -21 4 -38 10 -38 12 0 0 -32 -18 -45 -24 -19 -26 -88 -4 -162
36 -123 45 -163 38 -170 -3 -3 -6 0 -6 8 0 8 -13 26 -30 41 -27 24 -30 32 -30
90 0 34 -3 73 -6 86 -8 28 -37 26 -42 -3 -7 -45 -12 -49 -29 -25 -9 12 -29 50
-45 84 -33 68 -56 98 -69 90 -5 -3 -9 0 -9 6 0 6 -4 8 -10 5 -5 -3 -10 0 -10
7 0 8 -5 6 -11 -5 -6 -10 -8 -30 -5 -45 l6 -27 -25 30 c-14 17 -25 35 -25 41
0 5 -13 31 -29 56 -34 53 -29 58 47 47 45 -6 56 -1 46 24 -6 17 -53 27 -107
23 -28 -2 -40 2 -47 14 -11 20 11 30 67 30 18 0 36 6 40 14 4 7 18 18 31 25
23 12 31 53 10 50 -7 -1 -21 2 -32 6 -12 5 -44 0 -88 -14 -38 -13 -72 -20 -76
-17 -3 3 -14 -1 -24 -10 -10 -10 -30 -17 -45 -18 -20 -1 -35 -13 -62 -53 -19
-29 -36 -51 -38 -50 -1 2 5 27 13 57 26 91 25 98 -28 128 -40 23 -50 25 -65
14 -10 -7 -26 -15 -35 -18 -18 -6 -25 -24 -10 -24 11 0 34 -41 43 -77 9 -44
-1 -42 -31 7 -38 62 -76 65 -65 7 5 -32 5 -32 -11 -9 -22 30 -46 30 -35 -1 8
-20 5 -25 -22 -37 -24 -10 -37 -11 -61 -2 -38 15 -58 0 -34 -25 15 -15 15 -17
-5 -33 l-21 -17 29 -28 c37 -33 15 -22 -42 21 -51 39 -98 55 -192 64 -9 0 54
53 93 77 22 14 47 33 55 42 10 12 15 13 18 4 7 -20 15 -17 115 41 51 30 100
56 108 58 8 2 19 9 25 15 13 16 115 42 135 35 8 -3 20 -9 27 -14z m-439 -320
c42 -20 162 -122 162 -138 0 -4 -28 -7 -62 -6 -54 1 -68 -3 -99 -26 -20 -16
-40 -28 -45 -28 -5 0 -19 -11 -32 -25 -13 -13 -29 -22 -37 -19 -7 3 -21 -5
-29 -19 -13 -20 -54 -47 -71 -47 -11 0 7 67 25 91 23 33 24 41 8 57 -9 9 -18
6 -40 -15 -37 -35 -36 -20 2 23 57 65 64 160 10 126 -19 -12 -19 -10 2 24 l23
36 70 -6 c39 -4 89 -16 113 -28z"/>
<path d="M1956 2767 c-18 -13 -18 -16 -2 -48 9 -19 30 -50 46 -68 17 -18 30
-34 30 -37 0 -17 51 -69 90 -91 35 -21 58 -27 103 -26 64 0 76 6 58 27 -8 10
-29 15 -57 14 -59 -1 -108 25 -142 75 -47 69 -50 94 -8 62 13 -10 24 -11 37
-5 10 6 31 9 46 8 15 -2 30 1 33 6 5 9 -13 15 -55 18 -11 1 -29 9 -40 19 -49
42 -115 63 -139 46z"/>
<path d="M2240 2677 c1 -31 16 -36 98 -32 89 3 156 -9 149 -28 -2 -7 -18 -13
-35 -15 -18 -2 -32 -9 -32 -16 0 -12 -19 -22 -73 -40 -15 -5 -16 -9 -7 -26 6
-11 14 -20 19 -20 19 0 104 50 141 83 22 21 44 37 49 37 13 0 20 39 8 47 -6 3
-60 8 -121 9 -61 2 -130 5 -153 8 -30 3 -43 1 -43 -7z"/>
<path d="M1325 2460 c-46 -7 -80 -24 -93 -45 -4 -9 -18 -17 -31 -20 -94 -18
-203 -106 -247 -200 -15 -32 -41 -72 -56 -89 -16 -17 -43 -60 -59 -96 -17 -36
-35 -73 -40 -83 -5 -10 -28 -52 -50 -95 -22 -42 -53 -97 -70 -122 -16 -25 -32
-53 -35 -62 -4 -10 -10 -18 -15 -18 -5 0 -9 -4 -9 -10 0 -5 -8 -19 -17 -29
-22 -27 -65 -132 -59 -148 3 -7 -1 -10 -10 -6 -10 3 -14 -2 -14 -18 0 -19 2
-21 10 -9 13 19 14 -3 1 -28 -5 -9 -14 -35 -21 -57 -7 -22 -30 -66 -51 -97
-22 -31 -39 -64 -39 -72 0 -20 -21 -66 -31 -66 -4 0 -11 -10 -15 -22 -3 -13
-15 -35 -25 -50 -19 -26 -19 -27 6 -54 16 -17 23 -34 20 -43 -6 -15 -21 -97
-30 -161 -6 -44 -23 -103 -44 -160 -39 -101 -12 -170 113 -292 32 -30 47 -38
77 -38 31 0 37 3 32 15 -3 9 -8 14 -10 11 -11 -11 -101 71 -142 131 -45 65
-45 65 -24 82 17 13 21 28 22 74 1 66 17 89 91 130 41 23 45 29 42 59 -6 75
-3 77 106 75 105 -2 168 14 158 40 -4 8 -6 19 -6 24 0 4 -12 4 -27 -2 -35 -14
-173 -20 -173 -8 0 5 4 9 8 9 5 0 17 8 28 18 36 33 116 65 170 68 30 1 68 5
85 9 25 6 138 9 195 6 6 -1 14 -20 18 -42 10 -63 55 -151 74 -147 21 4 28 38
11 49 -11 6 -10 9 4 15 28 10 20 34 -12 34 -16 0 -31 6 -34 14 -3 8 -4 66 -2
128 2 62 6 212 10 333 3 121 8 256 11 300 4 61 1 88 -10 110 l-16 30 -2 -25
c-1 -14 -2 -50 -3 -80 -1 -30 -4 -89 -8 -130 -8 -98 -22 -505 -18 -549 2 -22
-1 -31 -8 -27 -6 4 -11 15 -11 24 0 16 -13 16 -152 10 -151 -6 -239 -25 -271
-57 -6 -6 -16 -11 -23 -11 -7 0 -31 -16 -55 -36 l-43 -36 -17 23 c-12 17 -15
29 -8 46 5 13 5 23 2 23 -4 0 -2 5 5 12 7 7 12 19 12 28 0 8 9 32 19 52 11 19
17 38 15 41 -5 5 62 155 102 229 8 14 14 33 14 41 0 8 9 32 19 54 11 21 24 52
31 70 7 20 21 34 37 38 16 4 23 11 20 20 -3 7 3 37 15 67 11 29 19 53 18 53
-1 0 4 14 10 30 7 17 23 59 36 94 13 36 29 70 35 78 6 7 9 13 5 13 -4 0 3 18
14 40 11 21 20 46 20 53 0 8 6 20 13 26 8 6 31 45 52 87 39 80 109 160 159
182 28 12 28 12 22 -13 -6 -23 -4 -25 11 -16 10 5 44 36 75 68 51 53 60 59 91
55 38 -4 51 7 40 35 -7 15 -15 17 -48 13z"/>
<path d="M3188 829 c-18 -10 -173 -214 -209 -276 -35 -60 -127 -190 -140 -199
-6 -3 -32 3 -58 14 -25 11 -59 23 -74 27 -21 4 -26 9 -19 18 6 8 3 18 -9 31
-11 11 -19 14 -19 8 0 -7 -4 -11 -9 -10 -5 2 -16 -5 -23 -14 -11 -15 -19 -16
-58 -7 -77 18 -124 32 -147 47 -20 12 -21 12 -16 -9 5 -19 3 -21 -18 -17 -13
3 -33 9 -44 13 -16 5 -17 5 -5 -4 8 -6 11 -11 5 -11 -25 0 20 -25 48 -26 18
-1 66 -11 107 -22 41 -11 96 -23 122 -26 26 -2 56 -10 68 -16 11 -6 20 -8 20
-6 0 7 119 -43 140 -58 56 -40 86 -45 95 -16 8 25 -1 40 -24 40 -29 0 -30 10
-5 47 13 20 24 41 24 47 0 13 133 200 187 265 13 14 23 31 23 38 0 6 3 13 8
15 14 6 62 77 62 92 0 20 -12 26 -32 15z"/>
<path d="M946 812 c-2 -1 -32 -5 -67 -9 -35 -3 -65 -10 -67 -14 -2 -5 -21 -13
-43 -19 -23 -6 -39 -17 -39 -25 0 -18 18 -19 57 -4 15 6 80 11 143 10 118 0
183 -14 287 -62 48 -21 85 -24 114 -8 26 14 14 31 -17 23 -27 -7 -80 3 -70 13
4 4 41 6 83 5 65 -1 73 1 57 12 -34 23 -87 34 -204 41 -63 4 -125 7 -137 6
-16 0 -23 5 -23 17 0 13 -8 17 -36 17 -20 0 -37 -1 -38 -3z"/>
</g>
</svg>
