<?xml version="1.0" standalone="no"?>
<!DOCTYPE svg PUBLIC "-//W3C//DTD SVG 20010904//EN"
 "http://www.w3.org/TR/2001/REC-SVG-20010904/DTD/svg10.dtd">
<svg version="1.0" xmlns="http://www.w3.org/2000/svg"
 width="800.000000pt" height="786.000000pt" viewBox="0 0 800.000000 786.000000"
 preserveAspectRatio="xMidYMid meet">

<g transform="translate(0.000000,786.000000) scale(0.100000,-0.100000)"
fill="#000000" stroke="none">
<path d="M0 3930 l0 -3930 4000 0 4000 0 0 3930 0 3930 -4000 0 -4000 0 0
-3930z m3003 2451 c477 -129 773 -208 1887 -506 316 -85 701 -188 855 -229
154 -42 435 -117 625 -168 190 -50 346 -92 348 -93 1 -1 -133 -506 -298 -1121
-166 -615 -357 -1328 -426 -1584 -69 -256 -152 -564 -184 -685 -33 -121 -95
-354 -139 -519 -44 -164 -82 -300 -84 -302 -2 -2 -102 23 -223 55 -120 33
-354 96 -519 140 -165 44 -484 130 -710 190 -875 235 -1929 517 -2330 623
-231 62 -422 113 -424 115 -6 4 -3 13 207 798 89 330 220 821 292 1090 72 270
241 901 376 1403 134 502 244 915 244 917 0 10 29 3 503 -124z"/>
<path d="M3615 4578 c-24 -66 -313 -1164 -307 -1169 4 -3 79 -24 167 -47 88
-23 350 -93 582 -155 l421 -113 47 175 c26 97 55 205 65 241 92 328 201 753
194 760 -5 4 -265 76 -579 160 -313 83 -573 154 -577 157 -5 2 -10 -2 -13 -9z"/>
</g>
</svg>
